<svg xmlns="http://www.w3.org/2000/svg" width="188.5" height="222.84" viewBox="0 0 188.5 222.84">
  <defs>
    <style>
      .cls-1 {
        fill-rule: evenodd;
      }
    </style>
  </defs>
  <path id="noPhoto" class="cls-1" d="M940.25,1198.59v-1.5h188.5v1.5H940.25Zm157.5-83-0.01-1.51h15.52l-0.01,1.51h-15.5Zm-15.26,82H986.253a15.244,15.244,0,0,1-15-15.5v-66.5h-15.5v-1.5h15.5l0-8H1097.74v76.21A15.268,15.268,0,0,1,1082.49,1197.59Zm13.76-90h-123.5l0,6.5h0v1.5h0l0,66.4c0,7.15,5.845,14.1,13.605,14.1h96.393a13.825,13.825,0,0,0,13.5-14v-74.5Zm-73.75-27a4.25,4.25,0,1,1-4.25,4.25A4.246,4.246,0,0,1,1022.5,1080.59Zm0,1a3.25,3.25,0,1,1-3.25,3.25A3.25,3.25,0,0,1,1022.5,1081.59Zm12.5-10a2.25,2.25,0,1,1-2.25,2.25A2.247,2.247,0,0,1,1035,1071.59Zm0,1a1.25,1.25,0,1,1-1.25,1.25A1.25,1.25,0,0,1,1035,1072.59Zm2,17a6.25,6.25,0,1,1-6.25,6.25A6.246,6.246,0,0,1,1037,1089.59Zm0,1a5.25,5.25,0,1,1-5.25,5.25A5.249,5.249,0,0,1,1037,1090.59ZM982.371,986.626l40.569-10.87,9.19,34.294-40.57,10.87Zm1.838,1.061,37.671-10.094,8.41,31.4-37.67,10.09Zm19.851-2.214a13.25,13.25,0,1,1-9.367,16.227A13.249,13.249,0,0,1,1004.06,985.473Zm0.39,1.449a11.749,11.749,0,1,1-8.308,14.388A11.748,11.748,0,0,1,1004.45,986.922Zm0.78,2.9a8.749,8.749,0,1,1-6.19,10.721A8.747,8.747,0,0,1,1005.23,989.819Zm0.39,1.449a7.248,7.248,0,1,1-5.13,8.882A7.241,7.241,0,0,1,1005.62,991.268Zm6.04,6.253h-1.01c-0.01-.03-0.01-0.06-0.02-0.091s-0.02-.056-0.03-0.086l0.89-.513c0.04,0.111.08,0.224,0.11,0.34S1011.64,997.4,1011.66,997.521Zm-1.95-1.594,0.52-.894a4.8,4.8,0,0,1,.51.5l-0.9.516C1009.8,996.005,1009.75,995.968,1009.71,995.927Zm0,4.693a1.741,1.741,0,0,0,.14-0.12l0.89,0.51a4.806,4.806,0,0,1-.51.5Zm-1.47-5.5V994.1a4.064,4.064,0,0,1,.69.182l-0.51.883C1008.36,995.147,1008.3,995.138,1008.24,995.123Zm-1.59.009c-0.03.008-.06,0.021-0.09,0.03l-0.5-.877a3.207,3.207,0,0,1,.33-0.119c0.12-.031.23-0.044,0.35-0.065v1.013C1006.71,995.122,1006.68,995.124,1006.65,995.132Zm-1.38.79c-0.04.042-.09,0.08-0.13,0.123l-0.89-.514a4.159,4.159,0,0,1,.5-0.5Zm-1.02,5.088,0.89-.52c0.04,0.05.09,0.08,0.13,0.13l-0.51.89A3.449,3.449,0,0,1,1004.25,1001.01Zm-0.94-3.489a4.108,4.108,0,0,1,.19-0.691l0.89,0.515a1.115,1.115,0,0,0-.04.176h-1.04Zm1.04,1.591a0.311,0.311,0,0,1,.03.087l-0.88.513c-0.04-.112-0.08-0.224-0.11-0.341a2.148,2.148,0,0,1-.07-0.35h1.01C1004.34,999.052,1004.34,999.082,1004.35,999.112Zm2.39,2.308v1.02a4.386,4.386,0,0,1-.69-0.18l0.51-.88C1006.62,1001.4,1006.68,1001.4,1006.74,1001.42Zm1.59-.01,0.09-.03,0.51,0.88a3.4,3.4,0,0,1-.34.12c-0.12.03-.23,0.04-0.35,0.06v-1.01C1008.27,1001.42,1008.3,1001.42,1008.33,1001.41Zm3.34-2.389a4.056,4.056,0,0,1-.18.691l-0.89-.514a1.153,1.153,0,0,1,.04-0.177h1.03Zm0.65-3.02-1.24.33a0.5,0.5,0,0,0-.05-0.105c-0.02-.034-0.04-0.06-0.06-0.094l0.91-.913c0.08,0.122.17,0.247,0.24,0.378S1012.25,995.866,1012.32,996Zm-2.89-1.3,0.33-1.254a4.972,4.972,0,0,1,.78.441l-0.92.918C1009.56,994.764,1009.49,994.734,1009.43,994.7Zm1.53,5.7c0.04-.06.08-0.12,0.12-0.19l1.25,0.33a5.454,5.454,0,0,1-.45.78Zm-3.58-6.2-0.34-1.244a5.519,5.519,0,0,1,.9,0l-0.33,1.239C1007.53,994.19,1007.45,994.2,1007.38,994.2Zm-1.93.529a0.754,0.754,0,0,0-.1.066l-0.9-.9c0.12-.085.24-0.178,0.37-0.254s0.27-.129.4-0.192l0.33,1.231C1005.52,994.7,1005.48,994.709,1005.45,994.729Zm-1.43,1.41c-0.03.065-.08,0.127-0.12,0.194l-1.25-.335a5.888,5.888,0,0,1,.46-0.776Zm0.42,6.521,0.92-.92a1.244,1.244,0,0,0,.2.1l-0.34,1.26A5.994,5.994,0,0,1,1004.44,1002.66Zm-2.27-3.94a6.749,6.749,0,0,1-.01-0.9l1.26,0.335a1.735,1.735,0,0,0,0,.228Zm1.78,1.6c0.02,0.03.05,0.06,0.07,0.09l-0.92.91c-0.08-.12-0.16-0.24-0.24-0.37a3.754,3.754,0,0,1-.19-0.41l1.23-.33C1003.92,1000.25,1003.93,1000.28,1003.95,1000.32Zm3.66,2.02,0.33,1.25a6.758,6.758,0,0,1-.9,0l0.34-1.24C1007.45,1002.35,1007.53,1002.34,1007.61,1002.34Zm1.93-.53,0.09-.06,0.9,0.9c-0.12.08-.23,0.18-0.36,0.25s-0.27.13-.41,0.2l-0.33-1.24A0.536,0.536,0,0,0,1009.54,1001.81Zm3.27-3.987a5.389,5.389,0,0,1,.01.9l-1.25-.334c0-.077-0.01-0.153-0.01-0.229Zm-4.48-.12,0.26-1.043a3.885,3.885,0,0,1,.64.371l-0.74.76C1008.44,997.758,1008.38,997.733,1008.33,997.7Zm-1.68-.425-0.27-1.036a4.341,4.341,0,0,1,.73,0l-0.27,1.031C1006.78,997.271,1006.72,997.277,1006.65,997.278Zm-0.45.152-0.27,1.065a4.421,4.421,0,0,1-.64-0.383l0.74-.773C1006.09,997.373,1006.14,997.4,1006.2,997.43Zm1.67,0.444,0.29,1.063a4.329,4.329,0,0,1-.73-0.008l0.26-1.051C1007.75,997.881,1007.81,997.875,1007.87,997.874Zm-0.24,1.507,0.77,0.779a4.452,4.452,0,0,1-.64.37l-0.29-1.051C1007.52,999.45,1007.57,999.413,1007.63,999.381Zm1.32-.774L1010,998.9a4.89,4.89,0,0,1-.37.642l-0.76-.765C1008.9,998.722,1008.92,998.663,1008.95,998.607Zm-2.45.6-0.93.555a4.537,4.537,0,0,1-.19-0.731l1.07,0A1.188,1.188,0,0,0,1006.5,999.21Zm52.44,14.25,36.37,21-17.75,30.75-36.37-21Zm0.55,2.05,33.77,19.5-16.25,28.15-33.77-19.5Zm10.65,35.92-12.78-7.37a4.131,4.131,0,0,1-1.51-5.64l0.25-.43a0.389,0.389,0,0,1,.52-0.14l19.26,11.13a0.366,0.366,0,0,1,.14.51l-0.25.43A4.113,4.113,0,0,1,1070.14,1051.43Zm-13.3-11.71a2.479,2.479,0,0,0,1.16,2.98c1.87,1.08,11.26,6.49,13,7.5a2.657,2.657,0,0,0,3.16-.49Zm10.91,1.1,5.51,1.45,4.02,4.05-1.19,1.05-3.58-3.8-5.51-1.45-3.58-3.8-5.51-1.45,0.31-1.55,5.95,1.7Zm10.85,2.8-9.35-5.4-9.35-5.4a0.711,0.711,0,0,1-.26-0.96l0.25-.44a7.807,7.807,0,0,1,10.65-2.85l3.21,1.86,3.21,1.85a7.778,7.778,0,0,1,2.85,10.64l-0.25.44A0.7,0.7,0,0,1,1078.6,1043.62Zm-2.14-9.9-3.46-2-3.46-2a6.012,6.012,0,0,0-8.2,2.2l8.66,5,8.66,5A6,6,0,0,0,1076.46,1033.72Zm-91.21,127.87h-1.5v-30.5h1.5v30.5Zm5,3h-1.5v-33.5h1.5v33.5Z" transform="translate(-940.25 -975.75)"/>
</svg>
